<svg id="Layer_1" data-name="Layer 1" xmlns="http://www.w3.org/2000/svg" viewBox="0 0 113 30"><defs><style>.cls-1{fill:#009fe3;}.cls-2{fill:#fff;}.cls-3{fill:#dadada;}</style></defs><path class="cls-1" d="M57.34.9a14,14,0,0,1,11.6,6.22,13.78,13.78,0,0,1,1.29,2.39,14.25,14.25,0,0,1,0,11,14.22,14.22,0,0,1-3,4.48,13.6,13.6,0,0,1-2.07,1.72A13.91,13.91,0,0,1,51.89,28a14,14,0,0,1-2.37-1.3,14.08,14.08,0,0,1-3.78-3.81,13.78,13.78,0,0,1-1.29-2.39,14.25,14.25,0,0,1,0-11,14.22,14.22,0,0,1,3-4.48,13.6,13.6,0,0,1,2.07-1.72A14,14,0,0,1,51.89,2,13.76,13.76,0,0,1,57.34.9m0-.9A15,15,0,1,0,72.22,15,14.94,14.94,0,0,0,57.34,0Z"/><path class="cls-1" d="M58.67,7.91a3.57,3.57,0,0,0-2-.62,4,4,0,0,0-2.84,1.24A5.43,5.43,0,0,0,52.4,12h8.09a7.31,7.31,0,0,0-.4-2.38A3.74,3.74,0,0,0,58.67,7.91Z"/><path class="cls-1" d="M57.25,2.52A12.48,12.48,0,1,0,69.63,15,12.44,12.44,0,0,0,57.25,2.52Zm-3,16.73a5.74,5.74,0,0,0,4.49,2.23,4.78,4.78,0,0,0,3-.95,7,7,0,0,0,2.13-3.26l.59.39a9.18,9.18,0,0,1-2.33,4.79,6.16,6.16,0,0,1-4.82,2.17,7,7,0,0,1-5.39-2.47A9.51,9.51,0,0,1,49.7,15.5a10.12,10.12,0,0,1,2.29-7,7.5,7.5,0,0,1,5.78-2.52,6.43,6.43,0,0,1,4.82,2,7.18,7.18,0,0,1,1.89,5.22H52.4A9.11,9.11,0,0,0,54.29,19.25Z"/><path class="cls-2" d="M25.35,5.62v.5a2.3,2.3,0,0,0-1.15.26,2.47,2.47,0,0,0-.84,1,16.39,16.39,0,0,0-.85,2.26L17.44,24.38H16.9L12.76,12.65,8.64,24.38H8.16L2.75,9.15c-.4-1.13-.66-1.8-.76-2a1.84,1.84,0,0,0-.74-.77A2.69,2.69,0,0,0,0,6.12v-.5H6.73v.5H6.41a1.59,1.59,0,0,0-1.08.33A1,1,0,0,0,5,7.23a9.59,9.59,0,0,0,.59,2.18L9.12,19.7l3-8.75L11.6,9.41l-.43-1.23A5.79,5.79,0,0,0,10.54,7a1.56,1.56,0,0,0-.42-.43,2.49,2.49,0,0,0-.68-.36,3,3,0,0,0-.8-.08v-.5h7.08v.5h-.48a1.56,1.56,0,0,0-1.1.33,1.14,1.14,0,0,0-.35.88,8.71,8.71,0,0,0,.6,2.4l3.49,10L21.34,9.6a8.28,8.28,0,0,0,.59-2.33,1,1,0,0,0-.19-.58,1.07,1.07,0,0,0-.49-.38,4,4,0,0,0-1.33-.19v-.5Z"/><path class="cls-2" d="M31.2,15.37v5.34a3.75,3.75,0,0,0,.38,2.15,1.9,1.9,0,0,0,1.54.6h.7V24H26v-.5h.68a1.83,1.83,0,0,0,1.65-.76,4.47,4.47,0,0,0,.27-2V8.87a3.89,3.89,0,0,0-.36-2.15,2,2,0,0,0-1.56-.6H26v-.5h6.66a11.66,11.66,0,0,1,3.85.51,5.38,5.38,0,0,1,2.38,1.71,4.42,4.42,0,0,1,1,2.85,4.81,4.81,0,0,1-1.47,3.65,5.75,5.75,0,0,1-4.15,1.41,12.16,12.16,0,0,1-1.42-.09C32.33,15.59,31.78,15.5,31.2,15.37Zm0-.77c.48.09.9.16,1.26.2a7.05,7.05,0,0,0,.94.07,3.16,3.16,0,0,0,2.41-1.09,3.93,3.93,0,0,0,1-2.82,5.14,5.14,0,0,0-.48-2.21A3.29,3.29,0,0,0,35,7.23a4,4,0,0,0-2-.51A7.45,7.45,0,0,0,31.2,7Z"/><path class="cls-3" d="M81.66,19.64H76.57l-.89,2.09a3.31,3.31,0,0,0-.33,1.15.66.66,0,0,0,.28.53,2.37,2.37,0,0,0,1.24.3v.36H72.73v-.36a2.26,2.26,0,0,0,1.07-.38,6,6,0,0,0,1.09-1.9l4.63-10.91h.34l4.57,11a5.14,5.14,0,0,0,1,1.73,2,2,0,0,0,1.26.44v.36H81.5v-.36a1.85,1.85,0,0,0,1.06-.26.67.67,0,0,0,.28-.55,4.05,4.05,0,0,0-.39-1.36Zm-.27-.72-2.23-5.36-2.29,5.36Z"/><path class="cls-3" d="M96,10.52V15.1h-.35A5.93,5.93,0,0,0,95,13a3.32,3.32,0,0,0-1.28-1.24A3.61,3.61,0,0,0,92,11.3a2.36,2.36,0,0,0-1.67.62,1.92,1.92,0,0,0-.66,1.42,1.67,1.67,0,0,0,.42,1.1,10.69,10.69,0,0,0,2.86,2,21.11,21.11,0,0,1,2.52,1.53,3.74,3.74,0,0,1,1,1.26,3.24,3.24,0,0,1,.37,1.51,3.46,3.46,0,0,1-1.16,2.6,4.21,4.21,0,0,1-3,1.09,6.21,6.21,0,0,1-1.08-.09,9.74,9.74,0,0,1-1.24-.36,6,6,0,0,0-1.2-.31.49.49,0,0,0-.38.15,1.09,1.09,0,0,0-.21.61h-.36V19.83h.36A6.39,6.39,0,0,0,89.32,22a3.34,3.34,0,0,0,1.3,1.18,4,4,0,0,0,1.92.46A2.73,2.73,0,0,0,94.46,23a2,2,0,0,0,.7-1.52,2.15,2.15,0,0,0-.26-1,3.1,3.1,0,0,0-.83-.93c-.26-.19-.94-.61-2.07-1.25a21.5,21.5,0,0,1-2.4-1.51,4.32,4.32,0,0,1-1.08-1.25A3.21,3.21,0,0,1,88.15,14a3.27,3.27,0,0,1,1.09-2.46,3.86,3.86,0,0,1,2.76-1,5.58,5.58,0,0,1,2.22.52,2.29,2.29,0,0,0,.77.24.58.58,0,0,0,.41-.15,1.2,1.2,0,0,0,.26-.61Z"/><path class="cls-3" d="M107.41,10.83H112v.36h-.25a1.92,1.92,0,0,0-.74.22,2.87,2.87,0,0,0-.88.65,8.53,8.53,0,0,0-1,1.36l-3.17,5v3.32a2.65,2.65,0,0,0,.27,1.52,1.47,1.47,0,0,0,1.16.41h.43v.36h-5.58v-.36h.46a1.35,1.35,0,0,0,1.19-.51,3,3,0,0,0,.21-1.42V18.64l-3.61-5.55a11.12,11.12,0,0,0-.86-1.22,3.67,3.67,0,0,0-1-.59,1.39,1.39,0,0,0-.56-.09v-.36h5.62v.36h-.29a1.74,1.74,0,0,0-.84.21.71.71,0,0,0-.38.65,3.23,3.23,0,0,0,.59,1.27l2.74,4.27,2.58-4.09a3,3,0,0,0,.58-1.37.8.8,0,0,0-.14-.48.89.89,0,0,0-.4-.34,2,2,0,0,0-.79-.12Z"/></svg>